<svg width="30" height="24" viewBox="0 0 30 24" fill="none" xmlns="http://www.w3.org/2000/svg">
<path fill-rule="evenodd" clip-rule="evenodd" d="M13.5262 7.62939e-06L4.39801 6.69767H0.627914V10.0465H13.5262V24L14.8605 24V17.3023H20.1977V24L21.532 24V10.0465H29.093V6.69767H29.0682L21.532 9.53674e-06L13.5262 7.62939e-06ZM6.16034 6.69767H13.5262V1.2931L6.16034 6.69767ZM21.532 6.69767V1.30625L27.5984 6.69767H21.532ZM20.1977 6.69768L14.8605 6.69767V1.11629H20.1977V6.69768ZM19.6766 10.0465L14.8605 15.1489V10.0465H19.6766ZM20.1977 10.8135L15.6533 15.6279H20.1977V10.8135ZM29.093 10.0465V12.8372H26.4244V10.0465H29.093ZM4.18605 10.0465H4.63082V16.186H4.18605V10.0465ZM7.29942 18.9767V16.186H1.51745V18.9767H7.29942Z" fill="white"/>
</svg>
